<svg width="0" height="0" xmlns="http://www.w3.org/2000/svg"><defs><symbol id="icon-local" viewBox="-288 409.6 18.7 23.3"><path fill="#38BF92" d="M-269.3 418.9c0 2-.6 3.9-1.9 5.8-.3.4-.9.5-1.3.2s-.5-.9-.2-1.3a8.1 8.1 0 0 0 1.6-4.8c0-4.1-3.4-7.5-7.5-7.5s-7.6 3.5-7.6 7.6c0 3.3 2 5.5 4.4 8.1 1.1 1.2 2.2 2.4 3.2 3.8 1-1.4 3.3-4 3.3-4 .3-.4.9-.4 1.3-.1.4.3.4.9.1 1.3 0 0-2.6 2.9-3.6 4.5a1 1 0 0 1-.8.4h-.6c-.3 0-.6-.2-.8-.4-1-1.6-2.2-2.9-3.5-4.3-1.2-1.3-2.4-2.6-3.3-4.1a9.6 9.6 0 0 1 1.2-11.8c1.7-1.8 4.1-2.7 6.6-2.7s4.8 1 6.6 2.7a9.2 9.2 0 0 1 2.8 6.6z"/></symbol><symbol id="icon-phone" viewBox="-286 409.9 22.1 22"><path fill="#38BF92" d="M-264.7 425.4l-.9-.9-.5-.4-1.3-1.3c-.6-.6-1.2-.9-1.9-.9s-1.3.3-1.9.9l-.4.4-.9 1a14.9 14.9 0 0 1-4-3.3c-.3-.4-1-.4-1.4-.1-.4.3-.4 1-.1 1.4.7.8 1.5 1.6 2.5 2.4 1 .8 1.8 1.2 2.6 1.6h.1c.2.1.8.3 1.4-.3l1.2-1.2.4-.4c.1-.1.3-.3.5-.3s.4.2.5.3l1.3 1.3.5.5.8.9c.2.2.4.5 0 1l-1.6 1.6c-.3.3-.7.5-1.2.6-.8.1-1.7-.1-2.9-.5a21.9 21.9 0 0 1-11.2-10.4c-.5-1-1-2.3-1.1-3.6 0-.8.2-1.3.7-1.8l1-.9.6-.6c.4-.4.7-.4 1.1 0l2.6 2.6.3.5c0 .2-.1.4-.3.5l-1.6 1.6a1 1 0 0 0 0 1.4c.4.4 1 .4 1.4 0l1.6-1.6c.6-.6.8-1.2.8-1.9s-.3-1.3-.8-1.8l-2.6-2.6c-1.1-1.1-2.6-1.1-3.8 0l-.6.6-.8.8c-.9.9-1.4 2-1.3 3.3.1 1.7.7 3.2 1.3 4.3a22 22 0 0 0 6 7.6c2.1 1.8 4.1 2.9 6.2 3.7a9 9 0 0 0 3.2.7h.5c.9-.1 1.8-.5 2.4-1.1l1.6-1.6c1.1-1.4 1.1-2.9 0-4z"/></symbol><symbol id="icon-email" viewBox="0 0 22.1 16.7"><path fill="#42BB91" d="M20.9 0H1.2C.5 0 0 .6 0 1.2v14.3c0 .7.5 1.2 1.2 1.2h19.7c.7 0 1.2-.5 1.2-1.2V1.2c0-.6-.6-1.2-1.2-1.2zm-.6 3.1c.1-.1.2 0 .2.1v11.1c0 .5-.4.8-.8.8H2.3a.6.6 0 0 1-.6-.6V2.3c0-.3.3-.6.6-.6h16.9c.1 0 .2.1.1.2l-7.7 6.6c-.2.2-.4.2-.6 0L5.1 3.6c-.3-.3-.8-.3-1.1.1s-.3.8.1 1.1l6.8 5.8c.2.2.4.2.6 0l8.8-7.5z"/></symbol></defs></svg>