<svg width="0" height="0" xmlns="http://www.w3.org/2000/svg"><defs><symbol id="icon-local" viewBox="-288 409.6 18.7 23.3"><path fill="#38BF92" d="M-269.3 418.9c0 2-.6 3.9-1.9 5.8-.3.4-.9.5-1.3.2s-.5-.9-.2-1.3a8.1 8.1 0 001.6-4.8c0-4.1-3.4-7.5-7.5-7.5s-7.6 3.5-7.6 7.6c0 3.3 2 5.5 4.4 8.1 1.1 1.2 2.2 2.4 3.2 3.8 1-1.4 3.3-4 3.3-4 .3-.4.9-.4 1.3-.1.4.3.4.9.1 1.3 0 0-2.6 2.9-3.6 4.5a1 1 0 01-.8.4h-.6c-.3 0-.6-.2-.8-.4-1-1.6-2.2-2.9-3.5-4.3-1.2-1.3-2.4-2.6-3.3-4.1a9.6 9.6 0 011.2-11.8c1.7-1.8 4.1-2.7 6.6-2.7s4.8 1 6.6 2.7a9.2 9.2 0 012.8 6.6z"/></symbol><symbol id="icon-phone" viewBox="-286 409.9 22.1 22"><path fill="#38BF92" d="M-264.7 425.4l-.9-.9-.5-.4-1.3-1.3c-.6-.6-1.2-.9-1.9-.9s-1.3.3-1.9.9l-.4.4-.9 1a14.9 14.9 0 01-4-3.3c-.3-.4-1-.4-1.4-.1-.4.3-.4 1-.1 1.4.7.8 1.5 1.6 2.5 2.4 1 .8 1.8 1.2 2.6 1.6h.1c.2.1.8.3 1.4-.3l1.2-1.2.4-.4c.1-.1.3-.3.5-.3s.4.2.5.3l1.3 1.3.5.5.8.9c.2.2.4.5 0 1l-1.6 1.6c-.3.3-.7.5-1.2.6-.8.1-1.7-.1-2.9-.5a21.9 21.9 0 01-11.2-10.4c-.5-1-1-2.3-1.1-3.6 0-.8.2-1.3.7-1.8l1-.9.6-.6c.4-.4.7-.4 1.1 0l2.6 2.6.3.5c0 .2-.1.4-.3.5l-1.6 1.6a1 1 0 000 1.4c.4.4 1 .4 1.4 0l1.6-1.6c.6-.6.8-1.2.8-1.9s-.3-1.3-.8-1.8l-2.6-2.6c-1.1-1.1-2.6-1.1-3.8 0l-.6.6-.8.8c-.9.9-1.4 2-1.3 3.3.1 1.7.7 3.2 1.3 4.3a22 22 0 006 7.6c2.1 1.8 4.1 2.9 6.2 3.7a9 9 0 003.2.7h.5c.9-.1 1.8-.5 2.4-1.1l1.6-1.6c1.1-1.4 1.1-2.9 0-4z"/></symbol><symbol id="icon-email" viewBox="0 0 22.1 16.7"><path fill="#42BB91" d="M20.9 0H1.2C.5 0 0 .6 0 1.2v14.3c0 .7.5 1.2 1.2 1.2h19.7c.7 0 1.2-.5 1.2-1.2V1.2c0-.6-.6-1.2-1.2-1.2zm-.6 3.1c.1-.1.2 0 .2.1v11.1c0 .5-.4.8-.8.8H2.3a.6.6 0 01-.6-.6V2.3c0-.3.3-.6.6-.6h16.9c.1 0 .2.1.1.2l-7.7 6.6c-.2.2-.4.2-.6 0L5.1 3.6c-.3-.3-.8-.3-1.1.1s-.3.8.1 1.1l6.8 5.8c.2.2.4.2.6 0l8.8-7.5z"/></symbol><symbol id="icon-home" viewBox="0 0 50 48"><path d="M49.4 24.8a2 2 0 01-1.4.6 2 2 0 01-1.4-.6l-1.5-1.6v7.1a2 2 0 01-2 2 2 2 0 01-2-2v-11l-14.9-15a2 2 0 00-2.5 0l-15 15v20.8c0 2.2 1.8 3.9 3.9 3.9h24.6c2.2 0 3.9-1.8 3.9-3.9 0-1.1.9-2 2-2a2 2 0 012 2c0 4.3-3.5 7.8-7.8 7.8H12.7a7.8 7.8 0 01-7.8-7.8V23.3l-1.5 1.5a2 2 0 01-2.8 0 2 2 0 010-2.8L21.2 1.4c2.2-2 5.6-2 7.8 0L49.4 22c.8.8.8 2.1 0 2.8z" fill="#abb5b5"/></symbol><symbol id="icon-cv" viewBox="-284 371.7 43 50.3"><style>.st0{fill:#abb5b5}</style><g id="XMLID_1_"><path id="XMLID_713_" class="st0" d="M-262.7 398.7h.3c3.1 0 5.6-1 7.5-3.1 4-4.5 3.4-12.2 3.3-13.1-.3-5.6-2.9-8.2-5.1-9.5-1.6-.9-3.5-1.3-5.7-1.3h-.2a12 12 0 00-5.7 1.3c-2.2 1.3-4.9 3.9-5.2 9.6-.1.9-.7 8.5 3.3 13a9.6 9.6 0 007.5 3.1zm-4.9-5.2c-3.2-3.6-2.5-10.4-2.5-10.6v-.1c.3-7.2 5.4-8 7.7-8h.1c2.7 0 7.3 1.2 7.6 8v.2c0 .4.6 7.1-2.5 10.6a7.5 7.5 0 01-5.1 2.1c-1.6 0-4.1-.8-5.3-2.2z"/><path id="XMLID_712_" class="st0" d="M-241 411.4v-.2c-.1-2.1-.2-7-4.9-8.6h-.1a26.2 26.2 0 01-8.5-3.9c-.4-.3-.8-.3-1.2-.3-.4.1-.8.3-1.1.7-.5.7-.3 1.8.4 2.3.2.1 4.3 3 9.5 4.3 2.3.8 2.5 3.2 2.6 5.6v.3l-.2 3c-1.9 1-8.3 4.2-18 4.2s-16.1-3.1-18-4.2l-.2-3v-.2c.1-2.4.3-4.8 2.6-5.6 4.6-1.2 9.6-4.3 9.6-4.3.7-.5.9-1.6.4-2.3-.5-.7-1.6-.9-2.3-.4 0 0-3.9 2.7-8.5 3.9h-.1c-4.6 1.6-4.8 6.5-4.9 8.6 0 .1-.1 3.4.4 4.9.1.3.3.6.6.8.1 0 7.6 5 20.3 5 12.1 0 19.5-4.5 20.3-5 .3-.2.5-.5.6-.8.6-1.5.7-4.8.7-4.8z"/></g></symbol><symbol id="icon-work" viewBox="0 0 52.5 50.5"><path d="M50.6 25a6 6 0 001.5-6.2 6 6 0 00-4.9-4.1l-9.5-1.4c-.8-.1-1.5-.6-1.9-1.4l-4.3-8.6c-1-2.1-3.1-3.4-5.4-3.4s-4.4 1.3-5.4 3.4L16.6 12a3 3 0 01-1.9 1.4l-9.5 1.4a6 6 0 00-4.9 4.1A6 6 0 001.8 25c.3.3.8.5 1.3.5s.9-.2 1.2-.5c.7-.7.7-1.8 0-2.5s-.9-1.6-.6-2.6c.3-.9 1.1-1.6 2-1.7l9.5-1.4c2-.3 3.7-1.5 4.5-3.3L24 4.9c.4-.9 1.3-1.4 2.2-1.4s1.8.5 2.2 1.4l4.3 8.6c.9 1.8 2.6 3 4.5 3.3l9.5 1.4c1 .1 1.7.8 2 1.7.3.9.1 1.9-.6 2.6l-6.9 6.7a5.9 5.9 0 00-1.7 5.3l1.6 9.5c.2 1-.2 1.9-1 2.4-.8.6-1.8.6-2.6.2L29 42.1a6.1 6.1 0 00-5.6 0l-8.5 4.5c-.9.5-1.8.4-2.6-.2-.8-.6-1.2-1.5-1-2.4l1.6-9.5c.3-2-.3-4-1.7-5.3l-2.7-2.6c-.7-.6-1.8-.6-2.5.1s-.7 1.8 0 2.5l2.7 2.6c.6.6.9 1.4.7 2.2l-1.6 9.5a6 6 0 002.4 5.9c1 .8 2.3 1.2 3.5 1.2 1 0 1.9-.2 2.8-.7l8.5-4.5c.7-.4 1.6-.4 2.3 0l8.5 4.5a6 6 0 006.4-.5 6 6 0 002.4-5.9L43.1 34c-.1-.8.1-1.6.7-2.2l6.8-6.8z" fill="#abb5b5"/></symbol></defs></svg>