<?xml version="1.0" encoding="utf-8"?>
<!-- Generator: Adobe Illustrator 19.0.0, SVG Export Plug-In . SVG Version: 6.00 Build 0)  -->
<svg version="1.1" id="Layer_1" xmlns="http://www.w3.org/2000/svg" xmlns:xlink="http://www.w3.org/1999/xlink" x="0px" y="0px"
	 viewBox="0 0 22.1 22" style="enable-background:new 0 0 22.1 22;" xml:space="preserve">
<style type="text/css">
	.st0{fill:#38BF92;}
</style>
<path id="XMLID_8047_" class="st0" d="M21.3,15.5c-0.3-0.3-0.6-0.6-0.9-0.9c-0.2-0.1-0.3-0.3-0.5-0.4l-1.3-1.3
	c-0.6-0.6-1.2-0.9-1.9-0.9c-0.7,0-1.3,0.3-1.9,0.9c-0.1,0.1-0.3,0.3-0.4,0.4c-0.3,0.3-0.6,0.6-0.9,1c-0.6-0.3-1.1-0.6-1.8-1.2
	c-0.9-0.7-1.6-1.4-2.2-2.1c-0.4-0.4-1-0.4-1.4-0.1c-0.4,0.4-0.4,1-0.1,1.4c0.7,0.8,1.5,1.6,2.5,2.4c0,0,0,0,0,0
	c1,0.8,1.8,1.2,2.6,1.6c0,0,0,0,0.1,0c0.2,0.1,0.8,0.3,1.4-0.3c0,0,0,0,0,0c0.4-0.4,0.8-0.8,1.2-1.2c0.1-0.1,0.3-0.3,0.4-0.4
	c0.1-0.1,0.3-0.3,0.5-0.3c0.2,0,0.4,0.2,0.5,0.3l1.3,1.3c0.2,0.2,0.3,0.3,0.5,0.5c0.3,0.3,0.6,0.6,0.9,0.9c0,0,0,0,0,0
	c0.2,0.2,0.4,0.5,0,1l-1.6,1.6c-0.4,0.4-0.7,0.5-1.2,0.6c-0.8,0.1-1.7-0.1-2.9-0.5c-1.9-0.7-3.7-1.8-5.7-3.4c-2.3-2-4.2-4.3-5.5-7
	c-0.5-1-1-2.3-1.1-3.6c0-0.8,0.2-1.3,0.7-1.8c0.4-0.3,0.7-0.6,1-0.9C3.8,2.6,4,2.4,4.1,2.2l0,0c0.4-0.4,0.7-0.4,1.1,0l2.7,2.7
	c0,0,0,0,0,0C8,5,8.1,5.1,8.1,5.3c0,0.2-0.1,0.4-0.3,0.5L6.2,7.5c-0.4,0.4-0.4,1,0,1.4c0.4,0.4,1,0.4,1.4,0l1.6-1.6
	c0.6-0.6,0.8-1.2,0.8-1.9c0-0.7-0.3-1.3-0.8-1.8L6.6,0.8C5.5-0.3,4-0.3,2.8,0.8C2.6,1,2.4,1.2,2.2,1.5C1.9,1.8,1.6,2,1.3,2.3
	c0,0,0,0,0,0C0.4,3.2-0.1,4.3,0,5.6C0.1,7.3,0.8,8.9,1.3,10v0c1.4,2.9,3.4,5.5,6,7.7c2.1,1.8,4.1,2.9,6.2,3.7
	c0.8,0.3,1.9,0.7,3.2,0.7c0.2,0,0.3,0,0.5,0h0c0.9-0.1,1.8-0.5,2.4-1.1l1.6-1.6c0,0,0,0,0,0C22.4,18.1,22.4,16.6,21.3,15.5z"/>
</svg>
