<?xml version="1.0" encoding="utf-8"?>
<!-- Generator: Adobe Illustrator 19.0.0, SVG Export Plug-In . SVG Version: 6.00 Build 0)  -->
<svg version="1.1" id="Layer_1" xmlns="http://www.w3.org/2000/svg" xmlns:xlink="http://www.w3.org/1999/xlink" x="0px" y="0px"
	 viewBox="0 0 50 48" style="enable-background:new 0 0 50 48;" xml:space="preserve">
<style type="text/css">
	.st0{fill:#ABB5B5;}
</style>
<path id="XMLID_7179_" class="st0" d="M49.4,24.8c-0.4,0.4-0.9,0.6-1.4,0.6c-0.5,0-1-0.2-1.4-0.6l-1.5-1.6v7.1c0,1.1-0.9,2-2,2
	c-1.1,0-2-0.9-2-2v-11l-14.9-15c-0.7-0.6-1.8-0.6-2.5,0l-15,15c0,0,0,0,0,0.1v20.7c0,2.2,1.8,3.9,3.9,3.9h24.6
	c2.2,0,3.9-1.8,3.9-3.9c0-1.1,0.9-2,2-2c1.1,0,2,0.9,2,2c0,4.3-3.5,7.8-7.8,7.8H12.7c-4.3,0-7.8-3.5-7.8-7.8V23.3l-1.5,1.5
	c-0.8,0.8-2,0.8-2.8,0c-0.8-0.8-0.8-2,0-2.8c0,0,20.6-20.5,20.6-20.6c2.2-2,5.6-2,7.8,0c0,0,20.4,20.6,20.4,20.6
	C50.2,22.8,50.2,24.1,49.4,24.8z"/>
</svg>
