<?xml version="1.0" encoding="utf-8"?>
<!-- Generator: Adobe Illustrator 19.0.0, SVG Export Plug-In . SVG Version: 6.00 Build 0)  -->
<svg version="1.1" id="Layer_1" xmlns="http://www.w3.org/2000/svg" xmlns:xlink="http://www.w3.org/1999/xlink" x="0px" y="0px"
	 viewBox="0 0 52.5 50.5" style="enable-background:new 0 0 52.5 50.5;" xml:space="preserve">
<style type="text/css">
	.st0{fill:#ABB5B5;}
</style>
<path id="XMLID_6271_" class="st0" d="M50.6,25c1.7-1.6,2.2-4,1.5-6.2c-0.7-2.2-2.6-3.8-4.9-4.1l-9.5-1.4c-0.8-0.1-1.5-0.6-1.9-1.4
	l-4.3-8.6c-1-2.1-3.1-3.4-5.4-3.4s-4.4,1.3-5.4,3.4L16.6,12c-0.4,0.7-1.1,1.2-1.9,1.4l-9.5,1.4c-2.3,0.3-4.2,1.9-4.9,4.1
	C-0.4,21,0.2,23.4,1.8,25c0.3,0.3,0.8,0.5,1.3,0.5c0.5,0,0.9-0.2,1.2-0.5c0.7-0.7,0.7-1.8,0-2.5c-0.7-0.7-0.9-1.6-0.6-2.6
	c0.3-0.9,1.1-1.6,2-1.7l9.5-1.4c2-0.3,3.7-1.5,4.5-3.3L24,4.9c0.4-0.9,1.3-1.4,2.2-1.4s1.8,0.5,2.2,1.4l4.3,8.6
	c0.9,1.8,2.6,3,4.5,3.3l9.5,1.4c1,0.1,1.7,0.8,2,1.7c0.3,0.9,0.1,1.9-0.6,2.6l-6.9,6.7c-1.4,1.4-2.1,3.4-1.7,5.3l1.6,9.5
	c0.2,1-0.2,1.9-1,2.4c-0.8,0.6-1.8,0.6-2.6,0.2l-8.5-4.5c-1.8-0.9-3.9-0.9-5.6,0l-8.5,4.5c-0.9,0.5-1.8,0.4-2.6-0.2
	c-0.8-0.6-1.2-1.5-1-2.4l1.6-9.5c0.3-2-0.3-4-1.7-5.3l-2.7-2.6C7.8,26,6.7,26,6,26.7c-0.7,0.7-0.7,1.8,0,2.5l2.7,2.6
	c0.6,0.6,0.9,1.4,0.7,2.2l-1.6,9.5c-0.4,2.3,0.5,4.5,2.4,5.9c1,0.8,2.3,1.2,3.5,1.2c1,0,1.9-0.2,2.8-0.7l8.5-4.5
	c0.7-0.4,1.6-0.4,2.3,0l8.5,4.5c2.1,1.1,4.5,0.9,6.4-0.5c1.9-1.4,2.8-3.6,2.4-5.9L43.1,34c-0.1-0.8,0.1-1.6,0.7-2.2L50.6,25z"/>
</svg>
