<?xml version="1.0" encoding="utf-8"?>
<!-- Generator: Adobe Illustrator 19.0.0, SVG Export Plug-In . SVG Version: 6.00 Build 0)  -->
<svg version="1.1" id="Layer_1" xmlns="http://www.w3.org/2000/svg" xmlns:xlink="http://www.w3.org/1999/xlink" x="0px" y="0px"
	 viewBox="0 0 22.1 16.7" style="enable-background:new 0 0 22.1 16.7;" xml:space="preserve">
<style type="text/css">
	.st0{fill:#38BF92;}
</style>
<path id="XMLID_8029_" class="st0" d="M20.9,0H1.2C0.5,0,0,0.5,0,1.2v14.3c0,0.7,0.5,1.2,1.2,1.2h19.7c0.7,0,1.2-0.5,1.2-1.2V1.2
	C22.1,0.5,21.5,0,20.9,0z M19.6,15H2.3c-0.3,0-0.6-0.3-0.6-0.6V2.3c0-0.3,0.3-0.6,0.6-0.6h16.9c0.1,0,0.2,0.1,0.1,0.2l-7.6,6.5
	c-0.3,0.2-0.7,0.2-1,0L5.1,3.6C4.8,3.3,4.3,3.3,4,3.6S3.7,4.5,4.1,4.8l6.6,5.6c0,0,0,0,0,0c0,0,0,0,0,0c0,0,0,0,0,0c0,0,0,0,0,0
	c0,0,0,0,0.1,0c0,0,0,0,0,0c0,0,0,0,0.1,0c0,0,0,0,0,0c0,0,0,0,0.1,0c0,0,0,0,0,0c0,0,0,0,0.1,0c0,0,0,0,0,0c0,0,0.1,0,0.1,0
	c0,0,0.1,0,0.1,0c0,0,0,0,0,0c0,0,0,0,0.1,0c0,0,0,0,0,0c0,0,0,0,0.1,0c0,0,0,0,0,0c0,0,0,0,0.1,0c0,0,0,0,0,0c0,0,0,0,0.1,0
	c0,0,0,0,0,0c0,0,0,0,0,0c0,0,0,0,0,0c0,0,0,0,0,0l8.6-7.3c0.1-0.1,0.2,0,0.2,0.1v11.1C20.5,14.7,20.1,15,19.6,15z"/>
</svg>
