<?xml version="1.0" encoding="utf-8"?>
<!-- Generator: Adobe Illustrator 19.0.0, SVG Export Plug-In . SVG Version: 6.00 Build 0)  -->
<svg version="1.1" id="Layer_1" xmlns="http://www.w3.org/2000/svg" xmlns:xlink="http://www.w3.org/1999/xlink" x="0px" y="0px"
	 viewBox="0 0 43 50.3" style="enable-background:new 0 0 43 50.3;" xml:space="preserve">
<style type="text/css">
	.st0{fill:#ABB5B5;}
</style>
<g id="XMLID_1_">
	<path id="XMLID_713_" class="st0" d="M21.3,27h0.2h0.1c3.1,0,5.6-1,7.5-3.1c4-4.5,3.4-12.2,3.3-13.1c-0.3-5.6-2.9-8.2-5.1-9.5
		C25.7,0.4,23.8,0,21.6,0h-0.2c-1.2,0-3.5,0.1-5.7,1.3c-2.2,1.3-4.9,3.9-5.2,9.6c-0.1,0.9-0.7,8.5,3.3,13C15.7,26,18.2,27,21.3,27z
		 M21.6,24.2l-0.1-0.3c-2.2,0-3.9-0.7-5.1-2.1c-3.2-3.6-2.5-10.4-2.5-10.6l0-0.1c0.3-7.2,5.4-8,7.7-8h0.1c2.7,0,7.3,1.2,7.6,8
		c0,0,0,0.1,0,0.2c0,0.4,0.6,7.1-2.5,10.6c-1.3,1.4-2.9,2.1-5.1,2.1L21.6,24.2z"/>
	<path id="XMLID_712_" class="st0" d="M42.8,39.7L42.8,39.7l0.2,0c0,0,0-0.1,0-0.1c0,0,0-0.1,0-0.1c-0.1-2.1-0.2-7-4.9-8.6l-0.1,0
		c-4.7-1.2-8.5-3.8-8.5-3.9c-0.4-0.3-0.8-0.3-1.2-0.3c-0.4,0.1-0.8,0.3-1.1,0.7c-0.5,0.7-0.3,1.8,0.4,2.3c0.2,0.1,4.3,3,9.5,4.3
		c2.3,0.8,2.5,3.2,2.6,5.6c0,0.1,0,0.2,0,0.3c0,0.9-0.1,2.2-0.2,3c-1.9,1-8.3,4.2-18,4.2c-9.7,0-16.1-3.1-18-4.2
		c-0.1-0.8-0.2-2.2-0.2-3l0-0.1c0,0,0-0.1,0-0.1c0.1-2.4,0.3-4.8,2.6-5.6c4.6-1.2,8.4-3.6,9.5-4.3l0.1,0c0.7-0.5,0.9-1.6,0.4-2.3
		c-0.5-0.7-1.6-0.9-2.3-0.4c0,0-3.9,2.7-8.5,3.9c-0.1,0-0.1,0-0.1,0c-4.6,1.6-4.8,6.5-4.9,8.6c0,0.1,0,0.2,0,0.3C0,40,0,43,0.5,44.5
		c0.1,0.3,0.3,0.6,0.6,0.8c0.1,0,7.6,5,20.3,5c12.1,0,19.5-4.5,20.3-5c0.3-0.2,0.5-0.5,0.6-0.8c0.6-1.5,0.5-4.4,0.5-4.8L42.8,39.7z"
		/>
</g>
</svg>
