<?xml version="1.0" encoding="utf-8"?>
<!-- Generator: Adobe Illustrator 19.0.0, SVG Export Plug-In . SVG Version: 6.00 Build 0)  -->
<svg version="1.1" id="Layer_1" xmlns="http://www.w3.org/2000/svg" xmlns:xlink="http://www.w3.org/1999/xlink" x="0px" y="0px"
	 viewBox="0 0 18.7 23.3" style="enable-background:new 0 0 18.7 23.3;" xml:space="preserve">
<style type="text/css">
	.st0{fill:#38BF92;}
</style>
<path id="XMLID_7259_" class="st0" d="M18.7,9.3c0,2-0.6,3.9-1.9,5.8c-0.3,0.4-0.9,0.5-1.3,0.2c-0.4-0.3-0.5-0.9-0.2-1.3
	c1.1-1.6,1.6-3.1,1.6-4.8c0-4.1-3.4-7.5-7.5-7.5S1.8,5.2,1.8,9.3c0,3.3,2,5.5,4.4,8.1c1.1,1.2,2.2,2.4,3.2,3.8
	c1-1.4,2.1-2.6,3.2-3.8l0.1-0.2c0.3-0.4,0.9-0.4,1.3-0.1c0.4,0.3,0.4,0.9,0.1,1.3l-0.1,0.2c-1.2,1.3-2.5,2.7-3.5,4.3
	c-0.2,0.3-0.5,0.4-0.8,0.4H9.1c-0.3,0-0.6-0.2-0.8-0.4c-1-1.6-2.2-2.9-3.5-4.3c-1.2-1.3-2.4-2.6-3.3-4.1C0.5,12.8,0,11.1,0,9.3
	c0-2.5,1-4.8,2.7-6.6S6.8,0,9.3,0s4.8,1,6.6,2.7C17.7,4.5,18.7,6.8,18.7,9.3z"/>
</svg>
